Release Info:

General

Format                                   : Matroska
Format version                           : Version 2
File size                                : 712 MiB
Duration                                 : 1h 56mn
Overall bit rate                         : 856 Kbps

Video
ID                                       : 1
Format                                   : MPEG-4 Visual
Format profile                           : Advanced Simple@L5
Format settings, BVOP                    : Yes
Format settings, QPel                    : No
Format settings, GMC                     : No warppoints
Format settings, Matrix                  : Default (H.263)
Codec ID                                 : V_MS/VFW/FOURCC / XVID
Codec ID/Hint                            : XviD
Duration                                 : 1h 56mn
Bit rate                                 : 711 Kbps
Width                                    : 656 pixels
Height                                   : 272 pixels
Display aspect ratio                     : 2.40:1
Frame rate mode                          : Constant
Frame rate                               : 23.976 fps
Color space                              : YUV
Chroma subsampling                       : 4:2:0
Bit depth                                : 8 bits
Scan type                                : Progressive
Compression mode                         : Lossy
Bits/(Pixel*Frame)                       : 0.166
Stream size                              : 591 MiB (83%)
Writing library                          : XviD 64
Language                                 : English
Default                                  : Yes
Forced                                   : No

Audio
ID                                       : 2
Format                                   : MPEG Audio
Format version                           : Version 1
Format profile                           : Layer 3
Mode                                     : Joint stereo
Mode extension                           : MS Stereo
Muxing mode                              : Header stripping
Codec ID                                 : A_MPEG/L3
Codec ID/Hint                            : MP3
Duration                                 : 1h 56mn
Bit rate mode                            : Constant
Bit rate                                 : 128 Kbps
Channel(s)                               : 2 channels
Sampling rate                            : 44.1 KHz
Compression mode                         : Lossy
Stream size                              : 106 MiB (15%)
Writing library                          : LAME3.98.2
Language                                 : English
Default                                  : Yes
Forced                                   : No



IMDB Info:

Set in the 1960s, three sisters form girl group and soon become local sensations with major label interest, but fame becomes a challenge as the close-knit family begins to fall apart.

Director: Salim Akil
Writers: Mara Brock Akil, Howard Rosenman (story)
Stars: Jordin Sparks, Carmen Ejogo and Whitney Houston 

Drama | Music
 
http://www.imdb.com/title/tt1876451/

Screen Shot:
 
http://www.shotpix.com/images/21431335650936516038.png 
http://www.shotpix.com/images/96027369988642461344.png 
http://www.shotpix.com/images/59818477177617445415.png 
http://www.shotpix.com/images/38382163891070002046.png 
http://www.shotpix.com/images/74362081516134034295.png 
http://www.shotpix.com/images/14336015831590543683.png 
http://www.shotpix.com/images/38672402642674848101.png

